<svg width="38" height="38" viewBox="0 0 38 38" fill="none" xmlns="http://www.w3.org/2000/svg">
<g clip-path="url(#clip0_217_74)">
<path d="M28.8125 10.0625V35.0625C28.8125 35.4769 28.6479 35.8743 28.3549 36.1674C28.0618 36.4604 27.6644 36.625 27.25 36.625C26.8356 36.625 26.4382 36.4604 26.1451 36.1674C25.8521 35.8743 25.6875 35.4769 25.6875 35.0625V10.0625C25.6875 9.6481 25.8521 9.25067 26.1451 8.95765C26.4382 8.66462 26.8356 8.5 27.25 8.5C27.6644 8.5 28.0618 8.66462 28.3549 8.95765C28.6479 9.25067 28.8125 9.6481 28.8125 10.0625ZM35.0625 0.6875C34.6481 0.6875 34.2507 0.85212 33.9576 1.14515C33.6646 1.43817 33.5 1.8356 33.5 2.25V35.0625C33.5 35.4769 33.6646 35.8743 33.9576 36.1674C34.2507 36.4604 34.6481 36.625 35.0625 36.625C35.4769 36.625 35.8743 36.4604 36.1674 36.1674C36.4604 35.8743 36.625 35.4769 36.625 35.0625V2.25C36.625 1.8356 36.4604 1.43817 36.1674 1.14515C35.8743 0.85212 35.4769 0.6875 35.0625 0.6875ZM19.4375 16.3125C19.0231 16.3125 18.6257 16.4771 18.3326 16.7701C18.0396 17.0632 17.875 17.4606 17.875 17.875V35.0625C17.875 35.4769 18.0396 35.8743 18.3326 36.1674C18.6257 36.4604 19.0231 36.625 19.4375 36.625C19.8519 36.625 20.2493 36.4604 20.5424 36.1674C20.8354 35.8743 21 35.4769 21 35.0625V17.875C21 17.4606 20.8354 17.0632 20.5424 16.7701C20.2493 16.4771 19.8519 16.3125 19.4375 16.3125ZM11.625 24.125C11.2106 24.125 10.8132 24.2896 10.5201 24.5826C10.2271 24.8757 10.0625 25.2731 10.0625 25.6875V35.0625C10.0625 35.4769 10.2271 35.8743 10.5201 36.1674C10.8132 36.4604 11.2106 36.625 11.625 36.625C12.0394 36.625 12.4368 36.4604 12.7299 36.1674C13.0229 35.8743 13.1875 35.4769 13.1875 35.0625V25.6875C13.1875 25.2731 13.0229 24.8757 12.7299 24.5826C12.4368 24.2896 12.0394 24.125 11.625 24.125ZM3.8125 31.9375C3.3981 31.9375 3.00067 32.1021 2.70765 32.3951C2.41462 32.6882 2.25 33.0856 2.25 33.5V35.0625C2.25 35.4769 2.41462 35.8743 2.70765 36.1674C3.00067 36.4604 3.3981 36.625 3.8125 36.625C4.2269 36.625 4.62433 36.4604 4.91735 36.1674C5.21038 35.8743 5.375 35.4769 5.375 35.0625V33.5C5.375 33.0856 5.21038 32.6882 4.91735 32.3951C4.62433 32.1021 4.2269 31.9375 3.8125 31.9375Z" fill="#D17528"/>
</g>
<defs>
<clipPath id="clip0_217_74">
<rect width="37.5" height="37.5" fill="white" transform="translate(0.25 0.25)"/>
</clipPath>
</defs>
</svg>
