<svg width="302" height="313" viewBox="0 0 302 313" fill="none" xmlns="http://www.w3.org/2000/svg">
<g clip-path="url(#clip0_239_793)">
<path d="M0.0375977 156.088C0.0375977 69.8833 67.5025 0 150.724 0C233.945 0 301.41 69.8833 301.408 156.088C301.408 242.293 233.944 312.176 150.724 312.174C67.5025 312.174 0.0375977 242.291 0.0375977 156.088ZM150.724 296.92C225.811 296.92 286.682 233.867 286.682 156.088C286.682 78.309 225.811 15.2559 150.724 15.2559C75.6366 15.2559 14.7655 78.309 14.7655 156.088C14.7655 233.867 75.6366 296.92 150.724 296.92Z" fill="#D17528"/>
<path d="M150.723 310.614C233.112 310.614 299.902 241.43 299.902 156.087C299.902 70.7446 233.112 1.56079 150.723 1.56079C68.334 1.56079 1.54443 70.7446 1.54443 156.087C1.54443 241.43 68.334 310.614 150.723 310.614Z" fill="#D17528"/>
<g clip-path="url(#clip1_239_793)">
<g clip-path="url(#clip2_239_793)">
<path d="M224.527 96.0201H187.625V79.6381C187.625 76.7416 186.514 73.9637 184.537 71.9156C182.559 69.8674 179.878 68.7168 177.081 68.7168H124.365C121.568 68.7168 118.887 69.8674 116.909 71.9156C114.932 73.9637 113.821 76.7416 113.821 79.6381V96.0201H76.9196C74.1233 96.0201 71.4416 97.1707 69.4643 99.2189C67.487 101.267 66.3762 104.045 66.3762 106.941V161.548C66.3762 164.444 67.487 167.222 69.4643 169.27C71.4416 171.319 74.1233 172.469 76.9196 172.469V237.997C76.9196 239.445 77.475 240.834 78.4636 241.858C79.4522 242.882 80.7931 243.458 82.1913 243.458H124.365V232.536H87.4629V172.469H129.636V177.93C129.636 179.378 130.192 180.767 131.18 181.791C132.169 182.815 133.51 183.391 134.908 183.391H166.538C167.936 183.391 169.277 182.815 170.266 181.791C171.254 180.767 171.81 179.378 171.81 177.93V156.087C171.81 154.639 171.254 153.25 170.266 152.226C169.277 151.202 167.936 150.627 166.538 150.627H134.908C133.51 150.627 132.169 151.202 131.18 152.226C130.192 153.25 129.636 154.639 129.636 156.087V161.548H76.9196V106.941H224.527V150.627H235.07V106.941C235.07 104.045 233.959 101.267 231.982 99.2189C230.005 97.1707 227.323 96.0201 224.527 96.0201ZM140.18 161.548H161.266V172.469H140.18V161.548ZM177.081 96.0201H124.365V79.6381H177.081V96.0201Z" fill="white"/>
<path d="M229.798 167.009H187.625C186.227 167.009 184.886 167.584 183.897 168.608C182.909 169.632 182.353 171.021 182.353 172.469V188.851H145.451C144.053 188.851 142.712 189.426 141.724 190.451C140.735 191.475 140.18 192.864 140.18 194.312V237.997C140.18 239.445 140.735 240.834 141.724 241.858C142.712 242.882 144.053 243.458 145.451 243.458H229.798C231.196 243.458 232.537 242.882 233.526 241.858C234.514 240.834 235.07 239.445 235.07 237.997V172.469C235.07 171.021 234.514 169.632 233.526 168.608C232.537 167.584 231.196 167.009 229.798 167.009ZM182.353 232.536H150.723V221.615H182.353V232.536ZM182.353 210.694H150.723V199.772H182.353V210.694ZM224.527 232.536H192.896V221.615H224.527V232.536ZM224.527 210.694H192.896V199.772H224.527V210.694ZM224.527 188.851H192.896V177.93H224.527V188.851Z" fill="white"/>
</g>
</g>
</g>
<defs>
<clipPath id="clip0_239_793">
<rect width="301.371" height="312.175" fill="white" transform="translate(0.0375977)"/>
</clipPath>
<clipPath id="clip1_239_793">
<rect width="168.694" height="174.741" fill="white" transform="translate(66.3762 68.7168)"/>
</clipPath>
<clipPath id="clip2_239_793">
<rect width="168.694" height="174.741" fill="white" transform="translate(66.3762 68.7168)"/>
</clipPath>
</defs>
</svg>
