<svg width="95" height="27" viewBox="0 0 95 27" fill="none" xmlns="http://www.w3.org/2000/svg">
<g clip-path="url(#clip0_111_638)">
<g clip-path="url(#clip1_111_638)">
<g clip-path="url(#clip2_111_638)">
<g clip-path="url(#clip3_111_638)">
<g clip-path="url(#clip4_111_638)">
<g clip-path="url(#clip5_111_638)">
<g clip-path="url(#clip6_111_638)">
<path d="M39.2354 10.9329C39.5244 11.0157 39.8025 11.1291 40.0697 11.273C40.335 11.4169 40.5705 11.5924 40.7764 11.7994C40.9803 12.0065 41.1446 12.2441 41.2693 12.5122C41.392 12.7784 41.4533 13.0751 41.4533 13.4024C41.4533 13.7928 41.3573 14.1881 41.1653 14.5883C40.9753 14.9866 40.6942 15.3484 40.3221 15.6737C39.95 15.9991 39.4888 16.2652 38.9385 16.4722C38.3862 16.6793 37.7508 16.7828 37.0323 16.7828H34.0156V6.20392H37.3292C37.9369 6.20392 38.4684 6.26898 38.9236 6.39911C39.3769 6.52924 39.756 6.70077 40.0608 6.91371C40.3656 7.12468 40.5943 7.37015 40.7467 7.65012C40.8991 7.92812 40.9753 8.21401 40.9753 8.50779C40.9753 8.75818 40.9268 8.99774 40.8298 9.22645C40.7328 9.45516 40.6042 9.67204 40.4438 9.87709C40.2855 10.0821 40.1014 10.2734 39.8916 10.4508C39.6798 10.6283 39.461 10.789 39.2354 10.9329ZM35.812 11.903V15.5111H37.2045C37.634 15.5111 38.0002 15.4549 38.3031 15.3425C38.6059 15.2301 38.8514 15.0832 39.0394 14.9018C39.2275 14.7204 39.3641 14.5154 39.4492 14.2867C39.5323 14.0599 39.5739 13.8283 39.5739 13.5917C39.5739 13.2979 39.5165 13.0455 39.4017 12.8346C39.2849 12.6216 39.1206 12.4471 38.9088 12.3111C38.695 12.1731 38.4416 12.0705 38.1487 12.0035C37.8537 11.9365 37.5271 11.903 37.1689 11.903H35.812ZM35.812 10.6667H38.1754C38.4802 10.4558 38.7257 10.2083 38.9118 9.92441C39.0978 9.6405 39.1909 9.32503 39.1909 8.97802C39.1909 8.51469 39.0087 8.14895 38.6445 7.8808C38.2783 7.61069 37.7597 7.47563 37.0887 7.47563H35.812V10.6667ZM43.4961 14.2334V9.12885H45.2509V13.9584C45.2509 14.2049 45.2845 14.4276 45.3518 14.6268C45.4191 14.8279 45.5132 15.0004 45.6339 15.1443C45.7547 15.2883 45.9001 15.3997 46.0704 15.4785C46.2386 15.5594 46.4247 15.5998 46.6286 15.5998C46.8028 15.5998 46.973 15.5702 47.1393 15.5111C47.3055 15.4539 47.4659 15.378 47.6203 15.2833C47.7747 15.1907 47.9221 15.0832 48.0627 14.961C48.2032 14.8368 48.3358 14.7076 48.4605 14.5736V9.12885H50.2153V16.7828H48.7961L48.5348 15.4904C48.3606 15.6501 48.1715 15.8147 47.9677 15.9843C47.7658 16.1558 47.551 16.3116 47.3234 16.4515C47.0957 16.5896 46.8552 16.7039 46.6019 16.7946C46.3485 16.8833 46.0842 16.9277 45.8091 16.9277C45.4944 16.9277 45.1974 16.8646 44.9183 16.7384C44.6373 16.6142 44.3918 16.4368 44.182 16.2061C43.9722 15.9734 43.8049 15.6915 43.6802 15.3602C43.5575 15.029 43.4961 14.6534 43.4961 14.2334ZM56.501 17.3092H54.7462C54.6354 17.3723 54.5196 17.4443 54.3988 17.5251C54.2781 17.6079 54.1653 17.6986 54.0604 17.7972C53.9574 17.8958 53.8713 18.0042 53.802 18.1225C53.7347 18.2408 53.7011 18.367 53.7011 18.5011C53.7011 18.645 53.7437 18.7801 53.8288 18.9062C53.9139 19.0305 54.0396 19.1399 54.2059 19.2345C54.3721 19.3272 54.579 19.4021 54.8264 19.4593C55.0719 19.5145 55.3539 19.5421 55.6726 19.5421C56.0408 19.5421 56.3674 19.5056 56.6524 19.4327C56.9375 19.3597 57.178 19.2621 57.3739 19.1399C57.5699 19.0176 57.7184 18.8767 57.8193 18.717C57.9203 18.5592 57.9707 18.3936 57.9707 18.2201C57.9707 18.0663 57.9321 17.9322 57.8549 17.8179C57.7777 17.7055 57.6728 17.6109 57.5402 17.534C57.4076 17.4571 57.2522 17.4009 57.0741 17.3654C56.8939 17.3279 56.7029 17.3092 56.501 17.3092ZM53.6744 17.1643C53.3399 17.0499 53.0677 16.8971 52.8579 16.7059C52.648 16.5166 52.5431 16.2918 52.5431 16.0316C52.5431 15.8739 52.5847 15.722 52.6678 15.5761C52.753 15.4322 52.8648 15.2952 53.0033 15.165C53.1399 15.0349 53.2953 14.9107 53.4695 14.7924C53.6437 14.6761 53.8199 14.5617 53.998 14.4493C53.6991 14.3212 53.4448 14.1674 53.2349 13.988C53.0251 13.8105 52.8529 13.6153 52.7183 13.4024C52.5857 13.1914 52.4897 12.9676 52.4303 12.731C52.3689 12.4964 52.3383 12.2588 52.3383 12.0183C52.3383 11.555 52.4372 11.137 52.6352 10.7643C52.8351 10.3917 53.0974 10.0733 53.422 9.80907C53.7486 9.5429 54.1207 9.33883 54.5384 9.19688C54.9561 9.05492 55.3876 8.98394 55.833 8.98394C56.1675 8.98394 56.4961 9.02534 56.8187 9.10815C57.1433 9.18899 57.4165 9.2994 57.6382 9.43939C57.7926 9.35264 57.9975 9.27968 58.2528 9.22054C58.5101 9.15941 58.7764 9.12885 59.0515 9.12885H60.2837L59.9719 10.371H58.4131C58.4428 10.4006 58.4864 10.4568 58.5438 10.5396C58.6012 10.6243 58.6566 10.7298 58.7101 10.856C58.7635 10.9802 58.811 11.1232 58.8526 11.2848C58.8941 11.4465 58.9149 11.6181 58.9149 11.7994C58.9149 12.2056 58.8189 12.5832 58.6269 12.9322C58.4369 13.2811 58.1835 13.5838 57.8668 13.8401C57.5501 14.0984 57.1879 14.3005 56.7801 14.4464C56.3704 14.5943 55.9507 14.6682 55.5212 14.6682C55.4301 14.6682 55.3381 14.6642 55.2451 14.6564C55.154 14.6485 55.06 14.6396 54.963 14.6297C54.8858 14.679 54.8036 14.7333 54.7165 14.7924C54.6295 14.8535 54.5503 14.9186 54.479 14.9876C54.4058 15.0586 54.3444 15.1345 54.2949 15.2153C54.2474 15.2981 54.2237 15.3829 54.2237 15.4697C54.2237 15.6175 54.291 15.7378 54.4256 15.8305C54.5622 15.9212 54.7482 15.9665 54.9838 15.9665H56.9434C57.2898 15.9665 57.6243 16.0089 57.947 16.0937C58.2677 16.1785 58.5497 16.3007 58.7932 16.4604C59.0386 16.6221 59.2346 16.8202 59.3811 17.0549C59.5295 17.2875 59.6038 17.5527 59.6038 17.8504C59.6038 18.1836 59.5078 18.5247 59.3158 18.8737C59.1257 19.2227 58.8447 19.5401 58.4725 19.826C58.1004 20.1119 57.6412 20.3455 57.0948 20.5269C56.5485 20.7064 55.92 20.7961 55.2094 20.7961C54.7561 20.7961 54.3345 20.7566 53.9446 20.6778C53.5566 20.5989 53.2181 20.4855 52.9291 20.3377C52.6421 20.1918 52.4174 20.0143 52.2551 19.8053C52.0928 19.5963 52.0117 19.3617 52.0117 19.1014C52.0117 18.8708 52.072 18.6558 52.1928 18.4567C52.3155 18.2595 52.463 18.0791 52.6352 17.9155C52.8094 17.7518 52.9915 17.6079 53.1815 17.4837C53.3695 17.3575 53.5338 17.251 53.6744 17.1643ZM53.9564 11.7876C53.9564 12.0321 53.998 12.2588 54.0812 12.4678C54.1663 12.6768 54.285 12.8602 54.4374 13.0179C54.5899 13.1737 54.769 13.2949 54.9749 13.3817C55.1807 13.4684 55.4064 13.5118 55.6518 13.5118C55.8834 13.5118 56.1012 13.4724 56.305 13.3935C56.5069 13.3127 56.6831 13.2003 56.8336 13.0564C56.984 12.9124 57.1028 12.738 57.1899 12.5329C57.2769 12.3278 57.3205 12.1011 57.3205 11.8527C57.3205 11.6062 57.2779 11.3795 57.1928 11.1725C57.1077 10.9654 56.9889 10.786 56.8365 10.6342C56.6841 10.4824 56.504 10.3631 56.2961 10.2764C56.0883 10.1896 55.8617 10.1462 55.6162 10.1462C55.3846 10.1462 55.1679 10.1847 54.966 10.2616C54.766 10.3385 54.5909 10.4479 54.4404 10.5898C54.292 10.7338 54.1742 10.9063 54.0871 11.1074C54 11.3105 53.9564 11.5372 53.9564 11.7876ZM61.6614 14.2334V9.12885H63.4162V13.9584C63.4162 14.2049 63.4498 14.4276 63.5171 14.6268C63.5844 14.8279 63.6784 15.0004 63.7992 15.1443C63.9199 15.2883 64.0644 15.3997 64.2327 15.4785C64.4029 15.5594 64.589 15.5998 64.7909 15.5998C64.9651 15.5998 65.1363 15.5702 65.3045 15.5111C65.4708 15.4539 65.6311 15.378 65.7855 15.2833C65.9399 15.1907 66.0874 15.0832 66.2279 14.961C66.3685 14.8368 66.5011 14.7076 66.6258 14.5736V9.12885H68.3806V16.7828H66.9584L66.6971 15.4904C66.5249 15.6501 66.3368 15.8147 66.1329 15.9843C65.931 16.1558 65.7163 16.3116 65.4886 16.4515C65.261 16.5896 65.0205 16.7039 64.7671 16.7946C64.5138 16.8833 64.2495 16.9277 63.9744 16.9277C63.6596 16.9277 63.3617 16.8646 63.0806 16.7384C62.8015 16.6142 62.5561 16.4368 62.3443 16.2061C62.1345 15.9734 61.9682 15.6915 61.8455 15.3602C61.7228 15.029 61.6614 14.6534 61.6614 14.2334ZM72.8818 7.47563V16.7828H71.0825V6.20392H74.2862C74.8959 6.20392 75.4511 6.27786 75.9519 6.42573C76.4507 6.57163 76.8803 6.78555 77.2405 7.0675C77.6008 7.34944 77.8799 7.69448 78.0778 8.10261C78.2758 8.51271 78.3747 8.98295 78.3747 9.51332C78.3747 10.0812 78.2659 10.5889 78.0481 11.0364C77.8324 11.484 77.5454 11.8625 77.1871 12.1721C76.8288 12.4836 76.4201 12.7222 75.9608 12.8878C75.5016 13.0534 75.0335 13.1362 74.5564 13.1362C74.4931 13.1362 74.4268 13.1343 74.3575 13.1303C74.2862 13.1244 74.2021 13.1145 74.1051 13.1007L74.215 11.903C74.2882 11.9108 74.3555 11.9168 74.4169 11.9207C74.4802 11.9227 74.5386 11.9237 74.592 11.9237C74.881 11.9237 75.1463 11.8754 75.3878 11.7787C75.6313 11.6821 75.8411 11.5402 76.0172 11.3529C76.1934 11.1656 76.331 10.9359 76.43 10.6638C76.5289 10.3917 76.5784 10.0772 76.5784 9.72035C76.5784 9.32602 76.52 8.9869 76.4032 8.70298C76.2884 8.41906 76.1212 8.18542 75.9014 8.00206C75.6817 7.8187 75.4155 7.68561 75.1027 7.6028C74.792 7.51802 74.4406 7.47563 74.0487 7.47563H72.8818ZM84.2982 15.656C84.1715 15.7625 84.0201 15.8886 83.8439 16.0345C83.6678 16.1824 83.4718 16.3224 83.256 16.4545C83.0423 16.5866 82.8087 16.698 82.5553 16.7887C82.3 16.8814 82.0327 16.9277 81.7536 16.9277C81.4686 16.9277 81.2034 16.8754 80.9579 16.7709C80.7144 16.6684 80.5026 16.5245 80.3225 16.3392C80.1404 16.1538 79.9979 15.932 79.895 15.6737C79.79 15.4174 79.7376 15.1325 79.7376 14.819C79.7376 14.4917 79.8039 14.1713 79.9365 13.8578C80.0691 13.5463 80.2918 13.2673 80.6046 13.0209C80.9154 12.7764 81.3271 12.5782 81.8397 12.4264C82.3524 12.2746 82.9858 12.1987 83.74 12.1987H84.2685V11.6072C84.2685 11.3943 84.2319 11.204 84.1587 11.0364C84.0874 10.8669 83.9864 10.7219 83.8558 10.6017C83.7252 10.4814 83.5688 10.3897 83.3867 10.3266C83.2065 10.2655 83.0046 10.2349 82.781 10.2349C82.6088 10.2349 82.4227 10.2547 82.2228 10.2941C82.0248 10.3355 81.8298 10.3927 81.6378 10.4656C81.4439 10.5366 81.2548 10.6214 81.0707 10.72C80.8886 10.8186 80.7243 10.926 80.5779 11.0423L80.4472 10.9714L80.1147 9.75879C80.6986 9.45516 81.242 9.25011 81.7447 9.14364C82.2475 9.03717 82.7186 8.98394 83.1581 8.98394C83.6133 8.98394 84.0181 9.03027 84.3724 9.12294C84.7287 9.21363 85.0296 9.35362 85.2751 9.5429C85.5225 9.73415 85.7105 9.97568 85.8392 10.2675C85.9659 10.5573 86.0292 10.9023 86.0292 11.3026V14.8397C86.0292 14.9127 86.0352 14.9925 86.047 15.0793C86.0589 15.166 86.0837 15.2479 86.1213 15.3247C86.1569 15.4016 86.2094 15.4667 86.2786 15.5199C86.3499 15.5732 86.4429 15.5998 86.5577 15.5998C86.627 15.5998 86.7092 15.5899 86.8042 15.5702C86.9012 15.5505 86.9982 15.519 87.0951 15.4756V16.3421C86.8339 16.5196 86.5746 16.6615 86.3172 16.768C86.0579 16.8745 85.8055 16.9277 85.5601 16.9277C85.3661 16.9277 85.1988 16.8912 85.0583 16.8183C84.9178 16.7473 84.799 16.6527 84.702 16.5344C84.607 16.4161 84.5268 16.281 84.4615 16.1292C84.3962 15.9774 84.3418 15.8196 84.2982 15.656ZM84.2685 14.7244V13.0505H83.8113C83.3085 13.0505 82.9037 13.085 82.5969 13.154C82.2901 13.2249 82.0525 13.3216 81.8843 13.4438C81.7141 13.566 81.6012 13.708 81.5458 13.8697C81.4904 14.0313 81.4627 14.2058 81.4627 14.3931C81.4627 14.5903 81.4914 14.7638 81.5488 14.9137C81.6082 15.0615 81.6873 15.1867 81.7863 15.2893C81.8853 15.3898 82.0021 15.4667 82.1367 15.5199C82.2732 15.5732 82.4187 15.5998 82.5731 15.5998C82.6879 15.5998 82.8087 15.586 82.9354 15.5584C83.0601 15.5328 83.1917 15.4864 83.3303 15.4194C83.4668 15.3504 83.6123 15.2607 83.7667 15.1503C83.9231 15.0398 84.0904 14.8979 84.2685 14.7244ZM90.2781 16.7828L87.5286 9.12885H89.4734L90.9669 14.0323L91.2995 15.4697H91.445L91.7716 14.0323L93.2769 9.12885H94.9367L90.8125 20.6541H89.1884L90.8125 16.7828H90.2781Z" fill="#D17528"/>
</g>
</g>
</g>
</g>
<g clip-path="url(#clip7_111_638)">
<g clip-path="url(#clip8_111_638)">
<path d="M0.0605469 13.5C0.0605469 6.06386 6.11264 0.0355835 13.5782 0.0355835C21.0438 0.0355835 27.0959 6.06386 27.0957 13.5C27.0957 20.9362 21.0436 26.9645 13.5782 26.9644C6.11264 26.9644 0.0605469 20.9361 0.0605469 13.5ZM13.5782 25.6485C20.3141 25.6485 25.7747 20.2094 25.7747 13.5C25.7747 6.79068 20.3141 1.35159 13.5782 1.35159C6.84233 1.35159 1.38175 6.79068 1.38175 13.5C1.38175 20.2094 6.84233 25.6485 13.5782 25.6485Z" fill="#D17528"/>
<path d="M13.5777 26.8297C20.9686 26.8297 26.9601 20.8618 26.9601 13.5C26.9601 6.13816 20.9686 0.170227 13.5777 0.170227C6.18682 0.170227 0.195312 6.13816 0.195312 13.5C0.195312 20.8618 6.18682 26.8297 13.5777 26.8297Z" fill="#D17528"/>
<g clip-path="url(#clip9_111_638)">
<g clip-path="url(#clip10_111_638)">
<path d="M20.199 8.31849H16.8886V6.90535C16.8886 6.65549 16.789 6.41587 16.6116 6.23919C16.4342 6.06251 16.1936 5.96326 15.9428 5.96326H11.2137C10.9629 5.96326 10.7223 6.06251 10.5449 6.23919C10.3675 6.41587 10.2679 6.65549 10.2679 6.90535V8.31849H6.95753C6.70669 8.31849 6.46612 8.41775 6.28874 8.59442C6.11137 8.7711 6.01172 9.01073 6.01172 9.26059V13.9711C6.01172 14.2209 6.11137 14.4605 6.28874 14.6372C6.46612 14.8139 6.70669 14.9131 6.95753 14.9131V20.5657C6.95753 20.6906 7.00736 20.8105 7.09605 20.8988C7.18473 20.9871 7.30502 21.0368 7.43044 21.0368H11.2137V20.0947H7.90335V14.9131H11.6866V15.3842C11.6866 15.5091 11.7364 15.6289 11.8251 15.7173C11.9138 15.8056 12.0341 15.8552 12.1595 15.8552H14.997C15.1224 15.8552 15.2427 15.8056 15.3314 15.7173C15.4201 15.6289 15.4699 15.5091 15.4699 15.3842V13.5C15.4699 13.3751 15.4201 13.2553 15.3314 13.1669C15.2427 13.0786 15.1224 13.029 14.997 13.029H12.1595C12.0341 13.029 11.9138 13.0786 11.8251 13.1669C11.7364 13.2553 11.6866 13.3751 11.6866 13.5V13.9711H6.95753V9.26059H20.199V13.029H21.1448V9.26059C21.1448 9.01073 21.0451 8.7711 20.8677 8.59442C20.6904 8.41775 20.4498 8.31849 20.199 8.31849ZM12.6324 13.9711H14.5241V14.9131H12.6324V13.9711ZM15.9428 8.31849H11.2137V6.90535H15.9428V8.31849Z" fill="white"/>
<path d="M20.6722 14.4421H16.889C16.7636 14.4421 16.6433 14.4917 16.5546 14.58C16.4659 14.6684 16.4161 14.7882 16.4161 14.9131V16.3263H13.1057C12.9803 16.3263 12.86 16.3759 12.7713 16.4642C12.6826 16.5526 12.6328 16.6724 12.6328 16.7973V20.5657C12.6328 20.6906 12.6826 20.8104 12.7713 20.8988C12.86 20.9871 12.9803 21.0367 13.1057 21.0367H20.6722C20.7977 21.0367 20.918 20.9871 21.0066 20.8988C21.0953 20.8104 21.1452 20.6906 21.1452 20.5657V14.9131C21.1452 14.7882 21.0953 14.6684 21.0066 14.58C20.918 14.4917 20.7977 14.4421 20.6722 14.4421ZM16.4161 20.0946H13.5786V19.1525H16.4161V20.0946ZM16.4161 18.2105H13.5786V17.2684H16.4161V18.2105ZM20.1993 20.0946H17.3619V19.1525H20.1993V20.0946ZM20.1993 18.2105H17.3619V17.2684H20.1993V18.2105ZM20.1993 16.3263H17.3619V15.3842H20.1993V16.3263Z" fill="white"/>
</g>
</g>
</g>
</g>
</g>
</g>
</g>
<defs>
<clipPath id="clip0_111_638">
<rect width="95" height="27" fill="white"/>
</clipPath>
<clipPath id="clip1_111_638">
<rect width="94.8781" height="26.9288" fill="white" transform="translate(0.0605469 0.0355835)"/>
</clipPath>
<clipPath id="clip2_111_638">
<rect width="94.8781" height="26.9288" fill="white" transform="translate(0.0605469 0.0355835)"/>
</clipPath>
<clipPath id="clip3_111_638">
<rect width="60.926" height="14.5921" fill="white" transform="translate(34.0127 6.20392)"/>
</clipPath>
<clipPath id="clip4_111_638">
<rect width="60.926" height="14.5921" fill="white" transform="translate(34.0127 6.20392)"/>
</clipPath>
<clipPath id="clip5_111_638">
<rect width="60.926" height="14.5921" fill="white" transform="translate(34.0127 6.20392)"/>
</clipPath>
<clipPath id="clip6_111_638">
<rect width="60.926" height="14.5921" fill="white" transform="translate(34.0127 6.20392)"/>
</clipPath>
<clipPath id="clip7_111_638">
<rect width="27.0352" height="26.9288" fill="white" transform="translate(0.0605469 0.0355835)"/>
</clipPath>
<clipPath id="clip8_111_638">
<rect width="27.0352" height="26.9288" fill="white" transform="translate(0.0605469 0.0355835)"/>
</clipPath>
<clipPath id="clip9_111_638">
<rect width="15.1331" height="15.0735" fill="white" transform="translate(6.01172 5.96326)"/>
</clipPath>
<clipPath id="clip10_111_638">
<rect width="15.1331" height="15.0735" fill="white" transform="translate(6.01172 5.96326)"/>
</clipPath>
</defs>
</svg>
