<svg width="28" height="27" viewBox="0 0 28 27" fill="none" xmlns="http://www.w3.org/2000/svg">
<g clip-path="url(#clip0_113_1564)">
<g clip-path="url(#clip1_113_1564)">
<path d="M0.0605469 13.5001C0.0605469 6.06392 6.11264 0.0356445 13.5782 0.0356445C21.0438 0.0356445 27.0959 6.06392 27.0957 13.5001C27.0957 20.9363 21.0436 26.9646 13.5782 26.9644C6.11264 26.9644 0.0605469 20.9361 0.0605469 13.5001ZM13.5782 25.6486C20.3141 25.6486 25.7747 20.2095 25.7747 13.5001C25.7747 6.79074 20.3141 1.35165 13.5782 1.35165C6.84233 1.35165 1.38175 6.79074 1.38175 13.5001C1.38175 20.2095 6.84233 25.6486 13.5782 25.6486Z" fill="black"/>
<path d="M13.5777 26.8299C20.9686 26.8299 26.9601 20.862 26.9601 13.5002C26.9601 6.13834 20.9686 0.17041 13.5777 0.17041C6.18682 0.17041 0.195312 6.13834 0.195312 13.5002C0.195312 20.862 6.18682 26.8299 13.5777 26.8299Z" fill="black"/>
<g clip-path="url(#clip2_113_1564)">
<g clip-path="url(#clip3_113_1564)">
<path d="M20.199 8.31861H16.8886V6.90547C16.8886 6.65561 16.789 6.41599 16.6116 6.23931C16.4342 6.06263 16.1936 5.96338 15.9428 5.96338H11.2137C10.9629 5.96338 10.7223 6.06263 10.5449 6.23931C10.3675 6.41599 10.2679 6.65561 10.2679 6.90547V8.31861H6.95753C6.70669 8.31861 6.46612 8.41787 6.28874 8.59455C6.11137 8.77122 6.01172 9.01085 6.01172 9.26071V13.9712C6.01172 14.221 6.11137 14.4607 6.28874 14.6373C6.46612 14.814 6.70669 14.9133 6.95753 14.9133V20.5658C6.95753 20.6908 7.00736 20.8106 7.09605 20.8989C7.18473 20.9873 7.30502 21.0369 7.43044 21.0369H11.2137V20.0948H7.90335V14.9133H11.6866V15.3843C11.6866 15.5092 11.7364 15.6291 11.8251 15.7174C11.9138 15.8057 12.0341 15.8554 12.1595 15.8554H14.997C15.1224 15.8554 15.2427 15.8057 15.3314 15.7174C15.4201 15.6291 15.4699 15.5092 15.4699 15.3843V13.5001C15.4699 13.3752 15.4201 13.2554 15.3314 13.167C15.2427 13.0787 15.1224 13.0291 14.997 13.0291H12.1595C12.0341 13.0291 11.9138 13.0787 11.8251 13.167C11.7364 13.2554 11.6866 13.3752 11.6866 13.5001V13.9712H6.95753V9.26071H20.199V13.0291H21.1448V9.26071C21.1448 9.01085 21.0451 8.77122 20.8677 8.59455C20.6904 8.41787 20.4498 8.31861 20.199 8.31861ZM12.6324 13.9712H14.5241V14.9133H12.6324V13.9712ZM15.9428 8.31861H11.2137V6.90547H15.9428V8.31861Z" fill="white"/>
<path d="M20.6722 14.4424H16.889C16.7636 14.4424 16.6433 14.492 16.5546 14.5803C16.4659 14.6687 16.4161 14.7885 16.4161 14.9134V16.3266H13.1057C12.9803 16.3266 12.86 16.3762 12.7713 16.4645C12.6826 16.5529 12.6328 16.6727 12.6328 16.7976V20.566C12.6328 20.6909 12.6826 20.8107 12.7713 20.8991C12.86 20.9874 12.9803 21.037 13.1057 21.037H20.6722C20.7977 21.037 20.918 20.9874 21.0066 20.8991C21.0953 20.8107 21.1452 20.6909 21.1452 20.566V14.9134C21.1452 14.7885 21.0953 14.6687 21.0066 14.5803C20.918 14.492 20.7977 14.4424 20.6722 14.4424ZM16.4161 20.0949H13.5786V19.1529H16.4161V20.0949ZM16.4161 18.2108H13.5786V17.2687H16.4161V18.2108ZM20.1993 20.0949H17.3619V19.1529H20.1993V20.0949ZM20.1993 18.2108H17.3619V17.2687H20.1993V18.2108ZM20.1993 16.3266H17.3619V15.3845H20.1993V16.3266Z" fill="white"/>
</g>
</g>
</g>
</g>
<defs>
<clipPath id="clip0_113_1564">
<rect width="27.0352" height="26.9288" fill="white" transform="translate(0.0605469 0.0356445)"/>
</clipPath>
<clipPath id="clip1_113_1564">
<rect width="27.0352" height="26.9288" fill="white" transform="translate(0.0605469 0.0356445)"/>
</clipPath>
<clipPath id="clip2_113_1564">
<rect width="15.1331" height="15.0735" fill="white" transform="translate(6.01172 5.96338)"/>
</clipPath>
<clipPath id="clip3_113_1564">
<rect width="15.1331" height="15.0735" fill="white" transform="translate(6.01172 5.96338)"/>
</clipPath>
</defs>
</svg>
