<svg width="28" height="27" viewBox="0 0 28 27" fill="none" xmlns="http://www.w3.org/2000/svg">
<g clip-path="url(#clip0_111_657)">
<path d="M0.0605469 13.5C0.0605469 6.06386 6.11264 0.0355835 13.5782 0.0355835C21.0438 0.0355835 27.0959 6.06386 27.0957 13.5C27.0957 20.9362 21.0436 26.9645 13.5782 26.9644C6.11264 26.9644 0.0605469 20.9361 0.0605469 13.5ZM13.5782 25.6485C20.3141 25.6485 25.7747 20.2094 25.7747 13.5C25.7747 6.79068 20.3141 1.35159 13.5782 1.35159C6.84233 1.35159 1.38175 6.79068 1.38175 13.5C1.38175 20.2094 6.84233 25.6485 13.5782 25.6485Z" fill="#D17528"/>
<path d="M13.5777 26.8297C20.9686 26.8297 26.9601 20.8618 26.9601 13.5C26.9601 6.13816 20.9686 0.170227 13.5777 0.170227C6.18682 0.170227 0.195312 6.13816 0.195312 13.5C0.195312 20.8618 6.18682 26.8297 13.5777 26.8297Z" fill="#D17528"/>
<g clip-path="url(#clip1_111_657)">
<g clip-path="url(#clip2_111_657)">
<path d="M20.199 8.31849H16.8886V6.90535C16.8886 6.65549 16.789 6.41587 16.6116 6.23919C16.4342 6.06251 16.1936 5.96326 15.9428 5.96326H11.2137C10.9629 5.96326 10.7223 6.06251 10.5449 6.23919C10.3675 6.41587 10.2679 6.65549 10.2679 6.90535V8.31849H6.95753C6.70669 8.31849 6.46612 8.41775 6.28874 8.59442C6.11137 8.7711 6.01172 9.01073 6.01172 9.26059V13.9711C6.01172 14.2209 6.11137 14.4605 6.28874 14.6372C6.46612 14.8139 6.70669 14.9131 6.95753 14.9131V20.5657C6.95753 20.6906 7.00736 20.8105 7.09605 20.8988C7.18473 20.9871 7.30502 21.0368 7.43044 21.0368H11.2137V20.0947H7.90335V14.9131H11.6866V15.3842C11.6866 15.5091 11.7364 15.6289 11.8251 15.7173C11.9138 15.8056 12.0341 15.8552 12.1595 15.8552H14.997C15.1224 15.8552 15.2427 15.8056 15.3314 15.7173C15.4201 15.6289 15.4699 15.5091 15.4699 15.3842V13.5C15.4699 13.3751 15.4201 13.2553 15.3314 13.1669C15.2427 13.0786 15.1224 13.029 14.997 13.029H12.1595C12.0341 13.029 11.9138 13.0786 11.8251 13.1669C11.7364 13.2553 11.6866 13.3751 11.6866 13.5V13.9711H6.95753V9.26059H20.199V13.029H21.1448V9.26059C21.1448 9.01073 21.0451 8.7711 20.8677 8.59442C20.6904 8.41775 20.4498 8.31849 20.199 8.31849ZM12.6324 13.9711H14.5241V14.9131H12.6324V13.9711ZM15.9428 8.31849H11.2137V6.90535H15.9428V8.31849Z" fill="white"/>
<path d="M20.6722 14.4421H16.889C16.7636 14.4421 16.6433 14.4917 16.5546 14.58C16.4659 14.6684 16.4161 14.7882 16.4161 14.9131V16.3263H13.1057C12.9803 16.3263 12.86 16.3759 12.7713 16.4642C12.6826 16.5526 12.6328 16.6724 12.6328 16.7973V20.5657C12.6328 20.6906 12.6826 20.8104 12.7713 20.8988C12.86 20.9871 12.9803 21.0367 13.1057 21.0367H20.6722C20.7977 21.0367 20.918 20.9871 21.0066 20.8988C21.0953 20.8104 21.1452 20.6906 21.1452 20.5657V14.9131C21.1452 14.7882 21.0953 14.6684 21.0066 14.58C20.918 14.4917 20.7977 14.4421 20.6722 14.4421ZM16.4161 20.0946H13.5786V19.1525H16.4161V20.0946ZM16.4161 18.2105H13.5786V17.2684H16.4161V18.2105ZM20.1993 20.0946H17.3619V19.1525H20.1993V20.0946ZM20.1993 18.2105H17.3619V17.2684H20.1993V18.2105ZM20.1993 16.3263H17.3619V15.3842H20.1993V16.3263Z" fill="white"/>
</g>
</g>
</g>
<defs>
<clipPath id="clip0_111_657">
<rect width="27.0352" height="26.9288" fill="white" transform="translate(0.0605469 0.0355835)"/>
</clipPath>
<clipPath id="clip1_111_657">
<rect width="15.1331" height="15.0735" fill="white" transform="translate(6.01172 5.96326)"/>
</clipPath>
<clipPath id="clip2_111_657">
<rect width="15.1331" height="15.0735" fill="white" transform="translate(6.01172 5.96326)"/>
</clipPath>
</defs>
</svg>
