<svg width="38" height="38" viewBox="0 0 38 38" fill="none" xmlns="http://www.w3.org/2000/svg">
<path d="M19 13.1406C17.8411 13.1406 16.7083 13.4843 15.7447 14.1281C14.7811 14.7719 14.0301 15.6871 13.5866 16.7577C13.1432 17.8284 13.0271 19.0065 13.2532 20.1431C13.4793 21.2797 14.0373 22.3238 14.8568 23.1432C15.6762 23.9627 16.7203 24.5207 17.8569 24.7468C18.9935 24.9729 20.1716 24.8568 21.2423 24.4134C22.313 23.9699 23.2281 23.2189 23.8719 22.2553C24.5157 21.2917 24.8594 20.1589 24.8594 19C24.8594 17.446 24.2421 15.9556 23.1432 14.8568C22.0444 13.758 20.554 13.1406 19 13.1406ZM19 22.5156C18.3047 22.5156 17.625 22.3094 17.0468 21.9231C16.4687 21.5368 16.0181 20.9878 15.752 20.3454C15.4859 19.703 15.4163 18.9961 15.5519 18.3141C15.6876 17.6322 16.0224 17.0057 16.5141 16.5141C17.0057 16.0224 17.6322 15.6876 18.3141 15.5519C18.9961 15.4163 19.703 15.4859 20.3454 15.752C20.9878 16.0181 21.5368 16.4687 21.9231 17.0468C22.3094 17.625 22.5156 18.3047 22.5156 19C22.5156 19.9324 22.1452 20.8266 21.4859 21.4859C20.8266 22.1452 19.9324 22.5156 19 22.5156ZM35.4063 8.45312H2.59375C2.28295 8.45312 1.98488 8.57659 1.76511 8.79636C1.54534 9.01613 1.42188 9.3142 1.42188 9.625V28.375C1.42188 28.6858 1.54534 28.9839 1.76511 29.2036C1.98488 29.4234 2.28295 29.5469 2.59375 29.5469H35.4063C35.7171 29.5469 36.0151 29.4234 36.2349 29.2036C36.4547 28.9839 36.5781 28.6858 36.5781 28.375V9.625C36.5781 9.3142 36.4547 9.01613 36.2349 8.79636C36.0151 8.57659 35.7171 8.45312 35.4063 8.45312ZM28.6167 27.2031H9.3833C8.98985 25.8725 8.26974 24.6614 7.28855 23.6802C6.30736 22.699 5.09628 21.9789 3.76563 21.5854V16.4146C5.09628 16.0211 6.30736 15.301 7.28855 14.3198C8.26974 13.3386 8.98985 12.1275 9.3833 10.7969H28.6167C29.0102 12.1275 29.7303 13.3386 30.7115 14.3198C31.6926 15.301 32.9037 16.0211 34.2344 16.4146V21.5854C32.9037 21.9789 31.6926 22.699 30.7115 23.6802C29.7303 24.6614 29.0102 25.8725 28.6167 27.2031ZM34.2344 13.9272C32.8288 13.3228 31.7084 12.2025 31.104 10.7969H34.2344V13.9272ZM6.896 10.7969C6.29159 12.2025 5.17123 13.3228 3.76563 13.9272V10.7969H6.896ZM3.76563 24.0728C5.17123 24.6772 6.29159 25.7975 6.896 27.2031H3.76563V24.0728ZM31.104 27.2031C31.7084 25.7975 32.8288 24.6772 34.2344 24.0728V27.2031H31.104Z" fill="#D17528"/>
</svg>
