<svg width="24" height="38" viewBox="0 0 24 38" fill="none" xmlns="http://www.w3.org/2000/svg">
<path d="M18.7812 2.34375C19.4029 2.34375 19.999 2.59068 20.4385 3.03022C20.8781 3.46976 21.125 4.0659 21.125 4.6875V32.8125C21.125 33.4341 20.8781 34.0302 20.4385 34.4698C19.999 34.9093 19.4029 35.1562 18.7812 35.1562H4.71875C4.09715 35.1562 3.50101 34.9093 3.06147 34.4698C2.62193 34.0302 2.375 33.4341 2.375 32.8125V4.6875C2.375 4.0659 2.62193 3.46976 3.06147 3.03022C3.50101 2.59068 4.09715 2.34375 4.71875 2.34375H18.7812ZM4.71875 0C3.47555 0 2.28326 0.49386 1.40419 1.37294C0.52511 2.25201 0.03125 3.4443 0.03125 4.6875V32.8125C0.03125 34.0557 0.52511 35.248 1.40419 36.1271C2.28326 37.0061 3.47555 37.5 4.71875 37.5H18.7812C20.0245 37.5 21.2167 37.0061 22.0958 36.1271C22.9749 35.248 23.4688 34.0557 23.4688 32.8125V4.6875C23.4688 3.4443 22.9749 2.25201 22.0958 1.37294C21.2167 0.49386 20.0245 0 18.7812 0L4.71875 0Z" fill="#D27C2C"/>
</svg>
