<svg width="122" height="121" viewBox="0 0 122 121" fill="none" xmlns="http://www.w3.org/2000/svg">
<rect x="32.473" y="30.2314" width="58.0546" height="58.0546" rx="29.0273" fill="#00CB6A"/>
<path d="M48.7568 59.5064L57.1358 67.8853L74.2428 50.7783" stroke="white" stroke-width="4.32143" stroke-linecap="round" stroke-linejoin="round"/>
<path d="M90.9693 92.6865C92.5515 92.86 95.9231 94.6654 97.2535 96.6609C98.5839 98.6565 99.3398 102.11 99.4507 103.662" stroke="#BAE0DB" stroke-width="1.72857" stroke-linecap="round" stroke-linejoin="round"/>
<path d="M27.7746 72.8959C25.9453 75.0024 21.1558 78.7829 16.6324 77.0534C10.9781 74.8915 11.1444 71.5655 12.9737 70.2351C14.803 68.9047 17.2976 71.0667 17.7965 72.8959C18.2954 74.7252 17.4639 80.8784 12.9737 83.2066C8.48358 85.5349 2.49672 84.3707 1 83.2066" stroke="#EFE0FF" stroke-width="1.72857" stroke-linecap="round" stroke-linejoin="round"/>
<path d="M99.8667 14.0256C97.7048 13.7484 93.1813 15.0234 92.3831 22.3407C91.5849 29.658 85.1767 31.1547 82.0724 30.9884" stroke="#5D32E3" stroke-width="1.72857" stroke-linecap="round" stroke-linejoin="round"/>
<circle cx="18.3784" cy="44.1728" r="3.99121" fill="#F99A3D"/>
<circle cx="42.5132" cy="12.8611" r="3.32592" fill="#FFE7EE"/>
<circle cx="52.6582" cy="19.1701" r="1.98456" fill="#FFE7EE"/>
<circle cx="105.687" cy="56.8342" r="3.57545" fill="#EFE0FF"/>
<circle cx="31.3497" cy="97.4124" r="3.57545" fill="#FFE7EE"/>
<circle cx="75.9191" cy="107.889" r="3.57545" fill="#F9D2DD"/>
<circle cx="64.8595" cy="104.314" r="1.9846" fill="#3D5CFF"/>
</svg>
