<svg width="38" height="39" viewBox="0 0 38 39" fill="none" xmlns="http://www.w3.org/2000/svg">
<path d="M34.5 7.63068H4.5C4.10218 7.63068 3.72064 7.4511 3.43934 7.13143C3.15804 6.81177 3 6.37821 3 5.92614C3 5.47406 3.15804 5.04051 3.43934 4.72084C3.72064 4.40118 4.10218 4.22159 4.5 4.22159H30C30.3978 4.22159 30.7794 4.04201 31.0607 3.72234C31.342 3.40268 31.5 2.96912 31.5 2.51705C31.5 2.06497 31.342 1.63141 31.0607 1.31175C30.7794 0.992086 30.3978 0.8125 30 0.8125H4.5C3.30653 0.8125 2.16193 1.35126 1.31802 2.31025C0.474106 3.26924 0 4.56992 0 5.92614V33.1989C0 34.5551 0.474106 35.8558 1.31802 36.8148C2.16193 37.7737 3.30653 38.3125 4.5 38.3125H34.5C35.2957 38.3125 36.0587 37.9533 36.6213 37.314C37.1839 36.6747 37.5 35.8076 37.5 34.9034V11.0398C37.5 10.1356 37.1839 9.26851 36.6213 8.62918C36.0587 7.98985 35.2957 7.63068 34.5 7.63068ZM34.5 34.9034H4.5C4.10218 34.9034 3.72064 34.7238 3.43934 34.4042C3.15804 34.0845 3 33.6509 3 33.1989V10.7479C3.48164 10.9419 3.98899 11.0406 4.5 11.0398H34.5V34.9034ZM25.5 22.1193C25.5 21.6136 25.632 21.1193 25.8792 20.6988C26.1264 20.2784 26.4778 19.9506 26.889 19.7571C27.3001 19.5636 27.7525 19.513 28.189 19.6116C28.6254 19.7103 29.0263 19.9538 29.341 20.3114C29.6557 20.669 29.87 21.1245 29.9568 21.6205C30.0436 22.1165 29.999 22.6306 29.8287 23.0978C29.6584 23.565 29.37 23.9643 29 24.2452C28.63 24.5262 28.195 24.6761 27.75 24.6761C27.1533 24.6761 26.581 24.4068 26.159 23.9273C25.7371 23.4478 25.5 22.7974 25.5 22.1193Z" fill="#D17528"/>
</svg>
